<?xml version="1.0" encoding="utf-8"?>
<!-- Generator: Adobe Illustrator 23.0.6, SVG Export Plug-In . SVG Version: 6.00 Build 0)  -->
<svg version="1.1" xmlns="http://www.w3.org/2000/svg" xmlns:xlink="http://www.w3.org/1999/xlink" x="0px" y="0px"
	 viewBox="0 0 841.9 595.3" style="enable-background:new 0 0 841.9 595.3;" xml:space="preserve">
<style type="text/css">
	.st0{fill-rule:evenodd;clip-rule:evenodd;fill:#00A2E7;}
	.st1{fill-rule:evenodd;clip-rule:evenodd;fill:#2D419B;}
	.st2{fill:#00A2E7;}
	.st3{fill:#FF73B7;}
	.st4{fill:#005853;}
	.st5{fill-rule:evenodd;clip-rule:evenodd;fill:#FEE033;}
	.st6{fill-rule:evenodd;clip-rule:evenodd;fill:#3C57CE;}
	.st7{fill:#FEE033;}
</style>
<g id="head">
	<path class="st0" d="M392.5,362.4c-4.1-8.2-6-17.5-3-26.6c8.6-26.3,44.7-11,48.6,4.3s-5.5,49.3-15.5,49.4c-4,0-11.4-4.3-18.4-11.2
		l-3.8,37.2l-30.3-7.5L392.5,362.4z"/>
</g>
<g id="hair">
	<path id="hair_1_" class="st1" d="M439.5,346.9c0.1-1.8-0.1-4-0.3-5.8c-0.2-2.3-0.9-4.5-1.7-6.7c-1.5-4-3.6-7.8-6.2-11.2
		c-4.6-6.1-11.3-10.6-18.8-11.6c-3.8-0.5-7.7,0-11.2,1.6c-3.2,1.4-6.6,3.8-10.2,3.1c-3.9-0.7-6.6-5-9.2-7.8
		c-2.9-3.2-6.2-5.8-10.1-7.5c-6.5-2.8-13.5-2.1-19.6,2.2c-6.5,4.6-12.2,12.4-10.9,21c0.2,1.6,0.7,3,1.6,4.3c0.8,1.2,2.1,2.6,2.2,4.2
		c0.1,1.7-1.8,3.4-2.7,4.7c-1.2,1.9-2.4,3.8-2.7,6.1c-0.6,3.7,0.9,7.8,2.7,10.8c1.9,3.1,4.6,5.2,7.7,6.7c2.1,1,4.2,1.8,6.5,2.2
		c1.1,0.2,2.2,0.1,3.3,0.2c1.1,0,1.6,0.4,2.3,1.2c3.4,3.6,7.6,5.7,12.4,6.5c4.1,0.7,8.9,0.9,12.8-1c4.4-2.1,5.3-6.3,5.6-10.9
		c0.8,0.7,3.2,1.6,2.2-0.6c-0.4-0.8-1.5-1.4-2.1-2c-0.8-0.7-1.5-1.5-2-2.5c-2-3.8,2.4-9.5,6.1-9.7c5.5-0.3,4.9,7.2,8.1,10
		c1.8,1.6,4.4,0.7,6.4-0.4c2.6-1.5,4.7-3.8,6.6-6.2c1.6-2,3.1-4,4.7-5.9c0.7-0.9,3.2-3.4,2.6-4.8c3.9,0.2,7.6,2.7,10.3,5.5
		c1.1,1.2,1.9,2.3,2.2,3.9c0.1,0.3,0.2,1.4,0.6,1.5C439.5,348.3,439.4,347.3,439.5,346.9"/>
</g>
<g id="right-hand">
	<path class="st2" d="M522.1,430.3L522.1,430.3C522.1,430.2,522.1,430.3,522.1,430.3l-8.1,2l0,0l-27.6,14.1l1,18.4
		c7.9-5.7,15.2-9.5,22-11.4c9-2.5,14.3-4.6,18.8-8.4c0.3-0.3,0.6-0.5,1-0.8c0,0,2.5-2.6,3.2-3.5c0.1-0.2,0.3-0.6,0.4-0.8
		C533.7,436.2,532.8,430,522.1,430.3z"/>
</g>
<g id="boat">
	<path class="st3" d="M773.4,528.4c-1.6-3.6-5.4-5.8-9.4-5.8h-69.4h-21.1H135c-20.1,0-36.5,16.2-36.5,36.2v0
		c0,20,16.3,36.2,36.5,36.2h537.3c0.8,0,1.7-0.1,2.5-0.3c47.8-11.5,74.7-33.7,78.2-36.7c0.3-0.2,0.6-0.5,0.9-0.7
		C774.3,543.1,775.8,533.8,773.4,528.4z"/>
</g>
<g id="stick">
	<path class="st4" d="M682.8,572.7C682.8,572.7,682.8,572.7,682.8,572.7L532.9,439.8c0,0.2-0.3,0.6-0.4,0.8c-0.7,1-3.2,3.5-3.2,3.5
		c-0.3,0.3-0.6,0.6-1,0.8l85.7,75.9c0.1,0.1,0.1,0.1,0.2,0.2l223.8,198.3c1.6-1.8,3.2-3.4,4.9-4.9L682.8,572.7z"/>
</g>
<g id="left-fingers">
	<path class="st2" d="M482.9,395.5c0.1,11,11.7,10.3,11.7,10.3S494.8,394.6,482.9,395.5z"/>
</g>
<g id="top-stick">
	<path class="st4" d="M458.8,374.2c-0.6-0.6-1.5-0.9-2.3-0.9c-1,0-1.9,0.4-2.6,1.1c-1.3,1.4-1.2,3.6,0.3,4.8L508,427l6,5.3l8.1-2
		L458.8,374.2z"/>
</g>
<g id="left-thumb">
	<path class="st2" d="M476.5,398.5c-0.5-0.1-1-1.3-1.2-1.8c-0.8-1.5,0.4-3.8,0.6-6c0.1-1.8,0.1-3-0.9-2.6c-0.6,0-1.1,0.1-1.6,0.4
		c-1.2,0.5-2.3,1.7-3.4,3.4c-1.5,2.5-2.9,6.1-4.2,10.9l-18.3,10l1,18.4c7.9-5.7,15.2-9.5,22-11.4c10-2.8,14.5-4.5,19.4-9
		L476.5,398.5z"/>
</g>
<g id="right-arm">
	<path id="Sleeve_1_" class="st5" d="M400.9,422c14.6-0.2,34-3.2,54.8-16.4l8.2,18.2c-14.3,14.2-34.4,25.9-52,25.4
		C398,448.8,390.9,432,400.9,422z"/>
</g>
<g id="shirt">
	<path id="Shirt_1_" class="st6" d="M348.7,522.6c41.6,0,72.2,0,91.8,0c4.2,0,3.4-6.1,2.8-9.1c-7-35.3-34.3-73.3-34.3-123.5
		l-26.9-3.4C360.1,421.8,353,464.4,348.7,522.6z"/>
</g>
<g id="left-arm">
	<path class="st7" d="M415.1,498.6c22-0.6,51.4-7.8,82.4-24.1c0.7-8-3.5-21.3-12.5-40c-36.4,12.9-62.3,17.5-77.8,13.7
		c-4-18.4-9.3-39-16-61.7l-8.3-0.5c-0.7-0.1-1.6-0.2-2.5-0.2c-16.5,0-25.7-6.5-36-3.3c-10.3,3.2-13.8,12.8-4.2,30.2
		c2.2,4.1,5.3,6.6,9.1,7.7c-10.6,15.8-11.7,69.8-11.4,102.1h77.6C416,515.4,415.9,507.5,415.1,498.6z"/>
</g>
<g id="water">
</g>
</svg>
