<?xml version="1.0" encoding="utf-8"?>
<!-- Generator: Adobe Illustrator 23.0.6, SVG Export Plug-In . SVG Version: 6.00 Build 0)  -->
<svg version="1.1" xmlns="http://www.w3.org/2000/svg" xmlns:xlink="http://www.w3.org/1999/xlink" x="0px" y="0px"
	 viewBox="0 0 841.9 595.3" style="enable-background:new 0 0 841.9 595.3;" xml:space="preserve">
<style type="text/css">
	.st0{fill:#005853;}
	.st1{fill:#00756F;}
	.st2{fill:#FEE033;}
	.st3{fill:#00A2E7;}
	.st4{fill:#2D419B;}
	.st5{fill-rule:evenodd;clip-rule:evenodd;fill:#2D419B;}
	.st6{fill-rule:evenodd;clip-rule:evenodd;fill:#00A2E7;}
	.st7{fill-rule:evenodd;clip-rule:evenodd;fill:#FF73B7;}
	.st8{fill-rule:evenodd;clip-rule:evenodd;fill:#FF8FC5;}
</style>
<g id="fire-log">
	<g>
		<path class="st0" d="M90.8,461.3h16.8h124h23.2c0,0-16.9,31.7,0,58.2H238H114H90.8C90.8,519.4,107.6,487.7,90.8,461.3z"/>
		<path class="st1" d="M90.8,461.3c16.9,26.4,0,58.2,0,58.2C75.5,487.7,90.8,461.3,90.8,461.3z"/>
		<path class="st1" d="M254.8,461.3c15.3,31.7,0,58.2,0,58.2C237.9,493,254.8,461.3,254.8,461.3z"/>
	</g>
</g>
<g id="fire">
	<g>
		<path class="st2" d="M98,370c0,0,12.8-26.1-0.4-37c0,0-4-2.1,28.4,10.2c0,0,18,11.3,34.7-55.3c0,0,49.8,29.2,66,76.1l12.3-7
			c0,0-0.7,28.2,8.1,40.9c0,0,10.9,21.8-16.9,56.4c0,0-24.7,24-54.6,28.5c0,0-37.7,5.3-63.4-29.9c0,0-16.6-19.7-20.4-41.9
			C91.9,410.8,88.7,386.2,98,370z"/>
		<path class="st2" d="M124.6,275.7c32.9,25.7,13.8,49.2,13.8,49.2C114.2,314.9,124.6,275.7,124.6,275.7z"/>
	</g>
</g>
<g id="log">
	<g>
		<path class="st0" d="M399.2,392.5h35.2h259.3h48.6c0,0-35.3,37.4,0,68.5h-35.2H447.9h-48.6C399.2,461,434.5,423.6,399.2,392.5z"/>
		<path class="st1" d="M399.2,392.5c35.3,31.1,0,68.5,0,68.5C367.2,423.6,399.2,392.5,399.2,392.5z"/>
		<path class="st1" d="M742.4,392.5c32,37.4,0,68.5,0,68.5C707,429.9,742.4,392.5,742.4,392.5z"/>
	</g>
</g>
<g id="right-leg_1_">
	<path class="st3" d="M570.6,486.2c5.6,8.9-7.1,15.7-13.2,9.8L514,450.5l-3-46.1C529,424.3,561.7,472,570.6,486.2z"/>
</g>
<g id="left-leg_1_">
	<path class="st3" d="M615.5,461.6c9.1,5.2,1.1,17.2-7,14.8l-59.7-19.9l-24.2-39.4C549.8,426.3,601,453.3,615.5,461.6z"/>
</g>
<g id="right-leg">
	<path class="st4" d="M574.1,405.8l-73.1,4l18.4-1l5.5,3l82.8,39.1l-12.4,25.8L426.8,414c0,0-14.5-6.9-14.4-15.6
		c0,0-2-11.9,14.1-22.1l86-17.4L574.1,405.8z"/>
</g>
<g id="left-leg">
	<path class="st4" d="M631,326.4l-172.9,0.8c0,0-38.9,1.2-38.6,17.5c0,0,4.2,18.8,25.4,38.7l99.1,107l23.9-16.9L512,396.9l43.9,11.8
		c0.1,0,0.2,0,0.3,0.1c3.3,0.5,65.2,9.6,82.2-45c1.5-4.9,2-10.1,1.5-15.2C639.2,342.1,637.4,332.7,631,326.4z"/>
</g>
<g id="right-foot">
	<g transform="translate(242.000000, 126.000000)">
		<path class="st5" d="M331.8,358.5c-1.2-0.8-2.8-0.5-3.7,0.6v0c-2.2,3.1-4.1,5.2-5.8,6.2c-2.1,1.2-5.2,2-9.5,2.4l-4.6-3.5
			c0,0,0,0,0,0c-0.6-0.4-1.4-0.3-1.8,0.3l-22.1,30.8c-2.2,1.7-4.9,3.9-8.3,6.4s-2.6,6.1,2.3,10.6c40.4-23.7,61.9-36.2,64.2-37.6
			c-1.6-4.3-3-7.5-4.2-9.6c-1-1.7-3.1-3.9-6.4-6.5C331.9,358.5,331.9,358.5,331.8,358.5z"/>
	</g>
</g>
<g id="left-foot">
	<path id="shoe_9_" class="st5" d="M619.2,458.5c-1.5-0.1-2.7,0.9-2.9,2.4h0c-0.4,3.8-1,6.5-2,8.2c-1.2,2.1-3.5,4.4-7,6.8l-5.8-0.8
		c0,0,0,0,0,0c-0.7-0.1-1.4,0.5-1.4,1.2l-3.9,37.7c-1,2.6-2.3,5.8-4,9.7s0.8,6.6,7.3,8.1c23.4-40.6,35.8-62.1,37.1-64.5
		c-3.6-3-6.4-5-8.4-6.2c-1.7-1-4.6-1.8-8.8-2.5C619.3,458.5,619.3,458.5,619.2,458.5z"/>
</g>
<g id="right-hand">
	<path class="st6" d="M504.8,317.5l-38.9,22.9c-9.7,15.4-15.5,22-17.2,19.9c-2.6-3.1,1.5-6.8,0.1-9.2c-1.4-2.4-9.2-1-16.5,0.6
		s-5.7-2-4.1-3.9c6.9-5.6,15.9-10.7,26.7-15.4l37.4-36.5L504.8,317.5z"/>
</g>
<g id="left-hand">
	<path class="st6" d="M698.4,371.8c1.9,3.8,15.9,15.5,25.6,22.1c3.9,2.7,2.3,6.1,0.8,7c-12,7.4-19.9-1.3-30.2-6.2
		c-11.4-5.3-10.4,9.6-19.4,5.6c2.8-6.2,9.2-17.7,6.2-25.3c-1.4-3.4-13-40.7-35.1-112l28.9-0.1C688,330.3,695.8,366.6,698.4,371.8z"
		/>
</g>
<g id="head">
	<path class="st6" d="M597.6,147.9c6.6-7.7,11-17.2,10.3-27.8c-2.1-30.6-44.7-23.9-53-8.4s-7.3,54.6,3.4,57.4
		c4.3,1.1,13.4-1.6,22.6-7.2l-5.8,41.1h34.3L597.6,147.9z"/>
</g>
<g id="hair">
	<path id="hair_3_" class="st5" d="M539.7,90.2c0.7-2.5,2.6-4.6,5.2-5.3c0.6-0.2,1.3-0.2,1.9-0.2c0.2,0,0.3,0.1,0.4-0.1
		c0.1-0.1,0.1-0.4,0.1-0.6c0.1-0.4,0.2-0.9,0.4-1.3c0.5-1.4,1.4-2.7,2.5-3.8c2-2,4.8-3.4,7.7-3.6c1.6-0.1,3.1,0.1,4.6,0.6
		c0.8,0.3,1.5,0.6,2.2,1c0.2,0.1,0.9,0.6,1.1,0.6c0.2,0,0.7-0.6,0.9-0.8c2.4-1.9,5.4-2.6,8.5-2.6c3.4,0,6.7,0.2,9.6,2.3
		c0.6,0.4,1.2,0.9,1.7,1.4c0.3,0.3,0.6,0.5,0.8,0.8c0.2,0.2,0.3,0.4,0.5,0.5c0.3,0.3,0.2,0.4,0.6,0.2c1.4-0.8,3-1.2,4.6-1
		c1,0.1,1.9,0.4,2.8,0.8c0.3,0.1,1,0.6,1.3,0.6c0.3,0,1-0.5,1.3-0.6c1.8-0.6,3.7-0.8,5.5-0.5c1.9,0.3,3.8,1.1,5.4,2.1
		c0.8,0.5,1.5,1.1,2,1.8c0.2,0.3,0.4,0.7,0.7,1c0.2,0.2,0.5,0.4,0.5,0.6c-0.1-0.1,2.1-1,2.3-1c1.1-0.3,2.2-0.2,3.2,0.1
		c2,0.7,3.7,2.1,5.1,3.6c0.7,0.8,1.3,1.6,1.9,2.5c0.3,0.4,0.5,0.9,0.7,1.3c0.1,0.2,0.2,0.5,0.3,0.7c0.2,0.3,0.3,0.3,0.6,0.4
		c1.6,0.6,3.1,1.5,4.2,2.8c1.1,1.3,1.9,2.9,2.2,4.6c0,0.1,0,0.5,0.1,0.6c0.1,0.1,0.4,0,0.5,0.1c0.4,0.1,0.9,0.1,1.3,0.2
		c0.8,0.2,1.5,0.5,2.2,0.8c2.8,1.4,4.7,3.9,5.7,6.8c1,3,1,6.5-0.2,9.5c-0.2,0.5-0.4,0.9-0.7,1.4c-0.2,0.3-0.2,0.3-0.1,0.6
		c0.1,0.3,0.3,0.6,0.5,0.9c0.5,1,0.8,2.1,1,3.2c0.3,1.8,0.5,3.7,0.2,5.5c-0.2,0.8-0.4,1.7-0.8,2.4c-0.2,0.4-0.5,0.7-0.7,1.1
		c-0.1,0.2-0.3,0.3-0.5,0.5c-0.1,0.1-0.2,0.2-0.3,0.3c-0.2,0.2-0.2,0-0.1,0.4c0.1,0.5,0.5,1,0.6,1.5c0.2,0.5,0.4,1,0.5,1.5
		c0.3,1.1,0.6,2.1,0.8,3.2c0.3,2.1,0.3,4.3-0.7,6.2c-0.4,0.8-1,1.5-1.8,2.1c-0.4,0.3-0.8,0.5-1.2,0.7c-0.2,0.1-0.5,0.1-0.6,0.3
		c-0.1,0.2,0.1,0.7,0.1,0.9c0.3,2.1,0.5,4.4-0.2,6.4c-0.6,1.9-1.9,3.6-3.5,4.7c-3.2,2.2-7.6,2.1-11,0.3c-0.9-0.5-1.7-1-2.5-1.7
		c-1.9,2.5-5.7,2.5-8.5,1.7c-3.4-0.9-6.2-3.3-7.8-6.4c-2.2,2.6-6.7,1.8-8.2-1.1c-0.4-0.7-0.6-1.5-0.7-2.3c-0.1-0.4,0-0.8-0.1-1.2
		c-0.1-0.5-0.4-1-0.6-1.5c-0.4-1-0.6-2-0.6-3c0-0.5,0.1-1.1,0.1-1.6c0-0.5-0.1-0.9-0.2-1.4c0.9,0.1,1.9-0.1,2.8-0.3
		c0.8-0.2,1.6-0.9,2.1-1.5c1.3-1.4,2.1-3.2,2.7-5c1.2-4,0.7-8.8-3.3-11c-1.9-1-7.5-1-9.7-0.5c-2.3,0.5-5,5.7-5.1,6.2
		c-0.1,0.3,0,0.7-0.3,0.9c-0.6,0.4-1.6-0.3-2.1-0.7c-0.8-0.7-1.3-1.5-1.8-2.4c-1-1.9-1.9-4-2.5-6.1c-0.5-1.6-0.7-3.3-1.3-4.9
		c-0.6-1.6-1.5-3-3-3.9c-1.6-1-3.4-1.5-5.1-2.1c-1.7-0.6-3.4-1.3-4.8-2.6c-0.3-0.3-0.6-0.6-0.8-0.9c-0.2-0.3-0.4-0.8-0.7-0.9
		c-0.4-0.3-1.1,0.4-1.5,0.7c-1.9,1.2-3.5,2.9-4.7,4.7c-1.3,1.8-2.3,3.6-3.1,5.6c-0.6,1.5-1,3.4-2.1,4.7c-0.5,0.6-4.1,0.9-5.3,0.4
		s-2.5-1.7-2.9-2.5c-0.4-0.8-0.5-1.7-0.3-2.6c0.1-0.5,0.3-1,0.4-1.5c0.1-0.4,0.2-0.8,0.4-1.2c0.4-0.7,1.1-1.3,1.9-1.5
		c-0.8-0.8-1.5-1.7-2-2.7c-0.5-1.1-0.9-2.4-1-3.6c-0.1-1,0.1-2,0.6-2.8c0.6-0.9,1.5-1.4,2.4-2c-1.3-1-2.4-2.2-3.3-3.6
		C539.9,96.7,538.8,93.4,539.7,90.2z"/>
</g>
<g id="right-arm">
	<path id="Clothes-Back_1_" class="st7" d="M494.5,335c-11.2,3.7-16.6-1.6-19.1,1.3l-14.8-10.9c3.2-2.7-3-7.1-1-15.8
		c5.7-23.8,98-67.1,116-130.6l11.4,2C587.1,256.3,505.7,331.2,494.5,335z"/>
</g>
<g id="coat">
	<path id="Clothes-Front" class="st8" d="M567,175.9c-0.2-2.9,2-5.4,4.9-5.6l35.5-2.5c2.9-0.2,5.4,2,5.6,4.9l0.5,7.1
		c48.1,32.8,77.6,85.6,88.6,158.5c2.5,16.3-6.7,19.8-5.4,27.1l-19.4,5.4c0-5.4-14.7-7.6-18.5-21.5c-2.2-8.1-5.2-17.7-9-28.9
		c-0.3,14.5-3,27.9-9,39c-14.8,27.3-100.4-2.6-109.4-30.5c-10.8-33.8,37.8-55.2,36.5-139.3L567,175.9z"/>
</g>
</svg>
