<?xml version="1.0" encoding="utf-8"?>
<!-- Generator: Adobe Illustrator 23.0.6, SVG Export Plug-In . SVG Version: 6.00 Build 0)  -->
<svg version="1.1" xmlns="http://www.w3.org/2000/svg" xmlns:xlink="http://www.w3.org/1999/xlink" x="0px" y="0px"
	 viewBox="0 0 841.9 595.3" style="enable-background:new 0 0 841.9 595.3;" xml:space="preserve">
<style type="text/css">
	.st0{fill-rule:evenodd;clip-rule:evenodd;fill:#2D419B;}
	.st1{fill-rule:evenodd;clip-rule:evenodd;fill:#005853;}
	.st2{fill-rule:evenodd;clip-rule:evenodd;fill:#00756F;}
	.st3{fill:#FF73B7;}
	.st4{fill-rule:evenodd;clip-rule:evenodd;fill:#FF73B7;}
	.st5{fill-rule:evenodd;clip-rule:evenodd;fill:#00A2E7;}
	.st6{fill-rule:evenodd;clip-rule:evenodd;fill:#3C57CE;}
	.st7{fill:#2D419B;}
	.st8{fill-rule:evenodd;clip-rule:evenodd;fill:#FF8FC5;}
	.st9{fill:none;stroke:#FF73B7;stroke-width:2;stroke-miterlimit:10;}
</style>
<g id="right-shoe">
	<path id="shoe_8_" class="st0" d="M116.1,553.6c0.8,0,1.4,0.6,1.5,1.5l0.7,8.2c0.1,0.6,0.4,1.2,0.9,1.4l39.2,17.7
		c3.6,0.5,4.7,3.9,3.3,10.1c-0.2,0.7-0.7,1.3-1.4,1.3H95c-0.7,0-1.3-0.6-1.4-1.4c-0.6-4.3-0.9-7.7-0.9-10c0-2,0.6-20.1,1.7-26.2
		c0.1-0.8,0.7-1.3,1.3-1.3L116.1,553.6z"/>
</g>
<g id="left-shoe">
	<path id="shoe_1_" class="st0" d="M212.6,553.6c0.8,0,1.4,0.6,1.5,1.5l0.7,8.2c0.1,0.6,0.4,1.2,0.9,1.4l39.2,17.7
		c3.6,0.5,4.7,3.9,3.3,10.1c-0.2,0.7-0.7,1.3-1.4,1.3h-65.3c-0.7,0-1.3-0.6-1.4-1.4c-0.6-4.3-0.9-7.7-0.9-10c0-2,0.6-20.1,1.7-26.2
		c0.1-0.8,0.7-1.3,1.3-1.3L212.6,553.6z"/>
</g>
<g id="left-leg">
	<polygon id="Leg_8_" class="st1" points="194.1,326.6 218.1,563.2 188.2,563.2 175.8,465.9 131.6,326.6 	"/>
</g>
<g id="right-leg">
	<path class="st2" d="M91.9,563.2l23.3-118.3c0,0-2.6-39.7-1.6-118.3h69.6L151.6,454l-31.2,109.2H96.4"/>
</g>
<g id="right-palm">
	<path class="st3" d="M248.1,238.9l20-21.2l6.8,11.4c0,0-5.4,9-21.6,17.8L248.1,238.9z"/>
</g>
<g id="right-arm">
	<path id="Coat-Back_1_" class="st0" d="M195.3,299.6c20,4,54.1-28,65.7-55.4l-11.6-12c-18.2,15.1-33.7,27-48.2,25.7
		c-15.3-1.3-36.4-39.1-63-51.1l-8.5,4.8C140.3,244,163.4,293.2,195.3,299.6z"/>
</g>
<g id="head">
	<path class="st4" d="M137.7,220h26.7l-4.5-32c7.2,4.3,14.3,6.4,17.6,5.6c8.3-2.1,9.1-32.6,2.6-44.6c-6.4-12-39.5-17.2-41.2,6.5
		c-0.6,8.3,2.9,15.6,8,21.6L137.7,220z"/>
</g>
<g id="shirt">
	<path id="Shirt_1_" class="st5" d="M146.6,199.9l24.5,3.8c0,46.5,21.5,77.6,28,110.3c0.6,2.8,2.7,12.6-1.2,12.6
		c-18.2,0-44.1,0-82.7,0C119.3,272.7,126.3,232.5,146.6,199.9z"/>
</g>
<g id="coat">
	<path id="Coat-Front_8_" class="st6" d="M133.8,199.9c0,0-10.7,11.4-12.4,15.8c-6.2,15.9-14.6,77.8-14.6,77.8
		c-5.3,18.8-9.2,38.1-10.4,56.4h76.5c9.9-25,3.8-75-18.2-150H133.8z"/>
</g>
<g id="rod">
	<path class="st7" d="M256.1,266.3l2.3,0.1l39.2-255.2h3.1l-36.3,237.8c1.5-1.1,3.4-1.7,5.4-1.7c5.2,0,9.3,4.2,9.3,9.3
		s-4.2,9.3-9.3,9.3c-3,0-5.7-1.4-7.4-3.7l-0.7,4.3l1.4,0.1l-5.8,42.3l-5.8-0.2L256.1,266.3z"/>
</g>
<g id="left-hand">
	<path class="st8" d="M247.7,293.4c0,0,17.9,6.7,18.2-13.9c0,0,0-11.9-5.4-10.6c0,0-12,2.4-17.1,13l-16.3,2.9l1.9,8.4L247.7,293.4z"
		/>
</g>
<g id="Layer_11">
	<path class="st6" d="M139.8,230.6c3.5,4.8,16.7,35.9,21.4,47.1c1,2.3,3.4,3.6,5.9,3.1c10.9-2.1,41.8-7.3,76.4-5.7
		c3.8,0.2,3.7,11,3.4,16.9c-0.1,2.3-1.7,4.2-4,4.8l-70.9,18c0,0-24.2,6.2-31-4.4c-12.7-19.7-29.5-50.9-25-71.6
		c0.8-3.7,3.7-6.5,7.3-7.3l11.9-2.6C137,228.5,138.8,229.2,139.8,230.6z"/>
</g>
<g id="right-fingers">
	<path class="st8" d="M261.3,228.2c-3-4.4-0.3-8.1,1.1-9.7c0.5-0.5,1-0.8,1.6-1c2.9-0.7,6-0.7,8.1-0.5c1.8,0.1,3.2,1.8,3.3,3.9
		c0.1,2.3-0.1,4.9-0.3,6.7c-0.2,1.4-1.1,2.4-2.3,2.5l-7.1,0.3C264.1,230.7,262.4,229.8,261.3,228.2z"/>
</g>
<g id="strng">
	<path class="st9" d="M298.1,17.9c0,0,4.1-50.2,38.1,29.5c42.5,99.9,133.5,193.8,248.9,355.8c31.7,44.4,62.5,84.2,61.5,192.1"/>
</g>
<g id="hair">
	<path id="Hair_6_" class="st0" d="M148.2,185.2l1.6-12.3c-1.7-5.3-1-8.7,2.1-10.1c3.1-1.4,6.2,0.5,9.3,5.8h3.2c1-4.4,2.6-7,4.9-7.9
		c7.2-2.7,12.4-1.1,16.7-1.1c4.7-16.2-6.2-23.6-23.9-25.6c-11.9-1.3-18.9,2.4-21,11.2c-4.2,1.1-6.8,3.8-7.8,8.3
		c-1.5,6.7,8.1,16.8,11.4,31.7H148.2z"/>
</g>
</svg>
