<svg xmlns="http://www.w3.org/2000/svg" width="7.63in" height="3.28in" viewBox="0 0 549.64 236.28"><title>Artboard 21</title><polygon points="265.31 18.02 253.3 13.02 247.29 16.02 235.28 16.02 215.25 3 194.23 11.01 170.2 14.02 150.18 22.03 122.14 27.03 101.12 41.05 80.09 54.06 75.09 55.06 15.02 97.11 0 236.28 549.64 236.28 549.64 159.18 418.49 77.09 417.49 72.08 404.47 70.08 388.45 62.07 380.44 53.06 373.44 47.06 363.43 49.06 341.4 27.03 335.39 30.04 332.39 25.03 320.38 28.03 290.34 0 265.31 18.02" fill="#281b44"/></svg>