<?xml version="1.0" encoding="utf-8"?>
<!-- Generator: Adobe Illustrator 23.0.6, SVG Export Plug-In . SVG Version: 6.00 Build 0)  -->
<svg version="1.1" id="Layer_1" xmlns="http://www.w3.org/2000/svg" xmlns:xlink="http://www.w3.org/1999/xlink" x="0px" y="0px"
	 viewBox="0 0 1354 767" style="enable-background:new 0 0 100% 0;" xml:space="preserve">
<style type="text/css">
	.st0{fill:#120F1B;}
</style>
<polygon class="st0" points="493.3,668.3 474.3,589 453.6,601.1 412.2,589 388,556.2 381.1,571.8 367.4,545.9 358.7,564.8 
	355.3,535.5 339.8,549.3 320.8,521.7 307,552.8 298.4,526.9 284.6,539 274.2,487.2 265.6,495.9 265.6,464.8 251.8,497.6 239.7,501 
	239.7,459.6 232.8,470 220.8,459.6 215.6,482.1 210.4,447.6 198.3,468.3 198.3,432.1 174.2,463.1 174.2,407.9 157,425.2 
	146.6,394.1 139.7,414.8 134.5,390.7 120.7,418.3 106.9,397.6 100,420 84.5,390.7 51.7,418.3 34.5,390.7 20.7,464.8 0,393.2 0,767 
	559.3,767 529.5,625.2 "/>
</svg>
