<svg xmlns="http://www.w3.org/2000/svg" width="4.55in" height="3.35in" viewBox="0 0 327.38 241.28"><title>Artboard 19</title><polygon points="70.08 16.02 62.07 4 58.07 17.02 49.06 0 30.03 16.02 20.02 0 12.01 43.05 0 1.46 0 241.28 186.22 241.28 282.33 234.27 327.38 231.27 307.36 136.16 286.33 161.19 275.32 115.14 263.31 122.14 239.28 115.14 225.26 96.11 221.26 105.12 213.25 90.11 208.24 101.12 206.24 84.1 197.23 92.11 186.22 76.09 178.21 94.11 173.2 79.09 165.19 86.1 159.19 56.07 154.18 61.07 154.18 43.05 146.17 62.07 139.16 64.08 139.16 40.05 135.16 46.05 128.15 40.05 125.15 53.06 122.14 33.04 115.14 45.05 115.14 24.03 101.12 42.05 101.12 10.01 91.11 20.02 85.1 2 81.09 14.02 78.09 0 70.08 16.02" fill="#120f1b"/></svg>