<?xml version="1.0" encoding="utf-8"?>
<!-- Generator: Adobe Illustrator 23.0.6, SVG Export Plug-In . SVG Version: 6.00 Build 0)  -->
<svg version="1.1" xmlns="http://www.w3.org/2000/svg" xmlns:xlink="http://www.w3.org/1999/xlink" x="0px" y="0px"
	 viewBox="0 0 841.9 595.3" style="enable-background:new 0 0 841.9 595.3;" xml:space="preserve">
<style type="text/css">
	.st0{fill:#FF73B7;}
	.st1{fill-rule:evenodd;clip-rule:evenodd;fill:#005853;}
	.st2{fill-rule:evenodd;clip-rule:evenodd;fill:#FF73B7;}
	.st3{fill-rule:evenodd;clip-rule:evenodd;fill:#FF8FC5;}
	.st4{fill-rule:evenodd;clip-rule:evenodd;fill:#FEE033;}
	.st5{fill-rule:evenodd;clip-rule:evenodd;fill:#2D419B;}
	.st6{fill-rule:evenodd;clip-rule:evenodd;fill:#00A2E7;}
	.st7{fill-rule:evenodd;clip-rule:evenodd;fill:#00756F;}
	.st8{fill:#FF8FC5;}
</style>
<g id="right-hand">
	<path class="st0" d="M457,89.9l0.3-20.9h4.8v-1.8c0,0-10.4-15.4-23.6-3.7l-1.1,14.7l10.9,17.4L457,89.9z"/>
</g>
<g id="right-arm">
	<path class="st1" d="M493.3,118.6c0,0-23.9-4.7-26.4-4.3l-8.7-27.8L445.3,93l1,33.8l42.2,21L493.3,118.6z"/>
</g>
<g id="left-leg">
	<polygon id="Leg_10_" class="st2" points="467.3,266.4 441.6,570.6 460.7,570.6 485.1,430.8 535.4,266.4 	"/>
</g>
<g id="right-leg">
	<path class="st3" d="M477.6,266.4c19.4,86.4,31.3,135.6,35.8,147.7c4.5,12.1,17.8,60,57,152.3l20.4,7
		c-24.8-100.6-35.3-153.7-36-162c-0.8-8.2-4.8-54.8-1.4-145H477.6z"/>
</g>
<g id="right-shoe">
	<path id="shoe_12_" class="st4" d="M590.5,566.1c-0.6-1.3-2.2-1.9-3.5-1.3l0,0c-3.5,1.6-6.2,2.4-8.2,2.4c-2.4,0-5.6-0.9-9.5-2.7
		L567,559c0,0,0,0,0,0c-0.3-0.7-1.1-1-1.8-0.7l-35,15.6c-2.8,0.4-6.3,0.9-10.5,1.4c-4.2,0.5-5.4,4-3.4,10.5c47.5,0,72.6,0,75.4,0
		c0.8-4.6,1.2-8.1,1.2-10.6c0-2-0.7-5-2.2-9C590.6,566.2,590.5,566.1,590.5,566.1z"/>
</g>
<g id="left-shoe">
	<path class="st4" d="M464.9,566.1c-0.6-1.3-2.2-1.9-3.5-1.3h0c-3.5,1.6-6.2,2.4-8.2,2.4c-2.4,0-5.6-0.9-9.5-2.7l-2.3-5.5
		c0,0,0,0,0,0c-0.3-0.7-1.1-1-1.8-0.7l-35,15.6c-2.8,0.4-6.3,0.9-10.5,1.4c-4.2,0.5-5.4,4-3.4,10.5c47.5,0,72.6,0,75.4,0
		c0.8-4.6,1.2-8.1,1.2-10.6c0-2-0.7-5-2.2-9C464.9,566.2,464.9,566.1,464.9,566.1z"/>
</g>
<g id="left-shorts">
	<polygon id="Bottom_3_" class="st1" points="465.1,266.4 455.3,350.1 520.7,350.1 542,266.4 	"/>
</g>
<g id="right-shorts">
	<path class="st5" d="M473.1,266.4l18.3,83.8h66.6c4.4-34.8,3-62.7-4-83.8H473.1z"/>
</g>
<g id="head">
	<g id="Head_11_" transform="translate(54.000000, 31.000000)">
		<path class="st2" d="M457.1,60.7c6.2-7.2,10.3-16.1,9.6-26c-2-28.6-41.8-22.3-49.6-7.9s-6.8,51,3.2,53.6c4,1,12.5-1.5,21.1-6.7
			l-5.4,38.4h32.1L457.1,60.7z"/>
	</g>
</g>
<g id="hair">
	<path id="hair_4_" class="st5" d="M483.8,42.1c4.4-1.3,10.7-1.8,13.4-1.5c-1.5-3.6-2.1-7.7-1.6-11.7c0.5-3.8,2.2-7.1,3.8-10.5
		c0.7-1.6,1.6-3.2,2.8-4.4c1.3-1.2,2.9-2,4.5-2.4c1.7-0.4,3.5-0.4,5.2,0c0.8,0.2,1.4,0.5,2.2,0.7c0.8,0.2,1.1-0.3,1.7-0.8
		c1.3-1.2,3.3-1.7,5-1.9c1.9-0.2,3.9,0.1,5.7,0.7c1.8,0.6,3.4,1.6,4.7,3c0.6,0.6,1.1,1.4,1.4,2.2c0.1,0.3,0.2,0.5,0.5,0.6
		c0.3,0.1,0.7,0.1,1,0.2c3,1,5.6,3.4,7,6.4c0.8,1.8,1.2,4.8,1.1,8.3c-0.1,3.5-3.2,12.5-6.2,15.8c-2.6,2.9-6.4,4.9-10.1,5.7
		c2.5,2.8,4.1,6.3,5.3,9.9c1.3,3.9,2.1,7.9,2.4,12c0.3,3.9,0.3,8-0.6,11.8c-0.9,3.6-2.7,6.5-5.7,8.3c-1.4,0.9-2.9,1.5-4.4,2.1
		c-1.5,0.6-3,1.1-4.5,1.5c-3,0.6-6.4,0.5-8.6-1.8c-0.8-0.8-1.7-1.9-2.3-2.9c-0.2-0.4-0.3-0.6-0.1-1c0.3-0.4,0.8-0.8,1.2-1.1
		c2.3-1.9,3.7-4.5,4.1-7.6c0.4-3.1-0.5-7.2-3.5-8.5c-3.8-1.7-7.9,0.2-11.2,2.1c-1.4-5-4.3-9.5-8.9-11.8c-5.1-2.5-10.9-2.8-16-5
		c-1.4-0.6-2.7-1.2-3.7-2.4c-0.4-0.5-0.9-1.1-1.1-1.8c-0.2-0.8,0.3-1.5,0.7-2.2C471,50.4,479.4,43.4,483.8,42.1z"/>
</g>
<g id="shirt">
	<path id="Shirt_10_" class="st6" d="M554.2,266.1H451.3c23.3-71.1,35.2-119.9,35.7-146.4c0-1.4,2.5-3.7,3.6-3.4
		c8.1,2.3,16.7,1.4,25.9-2.6C540.9,153,549.4,201.3,554.2,266.1z"/>
</g>
<g id="coat">
	<path class="st7" d="M490.7,173.6C474.7,242.5,475.4,299,510.9,299c16.9,0,35.2,0,54.9,0c8.7-58.6-14.2-139.8-35.4-180.7
		c-0.8-1.6-2.5-4.5-6.6-4.5c-3.5,0-8.9,0-15.9,0c0,0,0,0,0,0.1"/>
</g>
<g id="right-bino">
	<path class="st7" d="M463.7,76.2v-7.5c0-1.1-0.8-2.1-1.9-2.3l-40.3-6.6c-1.3-0.2-2.4,0.6-2.7,1.9c-0.6,3.7-1.5,11.3-0.1,18.1
		c0.2,1.1,1.3,1.9,2.5,1.8l40.4-3.2C462.8,78.4,463.7,77.4,463.7,76.2z"/>
</g>
<g id="left-bino">
	<path class="st1" d="M460.4,80.3V72c0-0.9-0.7-1.7-1.6-1.8l-45.2-6.7c-1-0.1-1.9,0.5-2.1,1.5c-0.7,3.5-1.9,11.9,0,19.2
		c0.2,0.8,1,1.4,1.9,1.3l45.3-3.3C459.7,82.1,460.4,81.3,460.4,80.3z"/>
</g>
<g id="left-hand">
	<path class="st8" d="M453,86.8c0,0,0.3-1.4,0.3-1.8c0-0.6-0.3-1.5-0.3-1.5c0-0.5-0.4-0.9-0.9-0.9c-2.5,0-8.9-0.9-1.7-13.7
		c0,0-2.6-3.4-15.8-2.8c0,0-3.7,1.3-6,7.9c0,0-1.8,7.6-1.2,16.2l-6.2,14.8l14.8,4.2l11.8-19c0,0,2.7-0.1,4.8-1.9
		C452.8,87.9,453,87.4,453,86.8z"/>
</g>
<g id="right-fingerrs">
	<path class="st0" d="M461.5,66.4c0,0-11,1.7-22.2-3.6C439.3,62.8,452.9,61.2,461.5,66.4z"/>
</g>
<g id="left-arm">
	<path class="st7" d="M496.7,161.8L407.9,181c0,0-28.4,4.1-12.3-28.2l29-64.2l22.4,6.5l-20.3,51l81.4-32.4L496.7,161.8z"/>
</g>
</svg>
